<svg xmlns="http://www.w3.org/2000/svg" width="528" height="288" viewBox="0 0 528 288" fill="none" stroke="black" stroke-width="2" stroke-linecap="round" stroke-linejoin="round"><g><circle cx="84" cy="84" r="28" /><circle cx="84" cy="84" r="5" fill="black" stroke="none" /><text x="30" y="134" font-size="11" font-family="Inter,system-ui,Arial">L1 Distinction</text></g><g><path d="M 168 76 C 184 48 224 48 240 76" /><polyline points="228,64 242,76 228,80" /><path d="M 240 92 C 224 120 184 120 168 92" /><polyline points="180,104 166,92 180,88" /><text x="150" y="134" font-size="11" font-family="Inter,system-ui,Arial">L2 Action</text></g><g><circle cx="324" cy="84" r="30"/><path d="M 324 54 A 30 30 0 0 1 350 69" /><path d="M 350 99 A 30 30 0 0 1 324 114" /><path d="M 298 69 A 30 30 0 0 1 298 99" /><text x="270" y="134" font-size="11" font-family="Inter,system-ui,Arial">L3 Resonance</text></g><g><polygon points="444.00,54.00 473.25,90.68 430.98,111.03 420.55,65.30 467.45,65.30 457.02,111.03 414.75,90.68 444.00,54.00" fill="none" /><text x="390" y="134" font-size="11" font-family="Inter,system-ui,Arial">L4 Words(7)</text></g><g><line x1="64.0" y1="184.0" x2="104.0" y2="184.0" /><line x1="64.0" y1="184.0" x2="64.0" y2="224.0" /><line x1="64.0" y1="194.0" x2="104.0" y2="194.0" /><line x1="74.0" y1="184.0" x2="74.0" y2="224.0" /><line x1="64.0" y1="204.0" x2="104.0" y2="204.0" /><line x1="84.0" y1="184.0" x2="84.0" y2="224.0" /><line x1="64.0" y1="214.0" x2="104.0" y2="214.0" /><line x1="94.0" y1="184.0" x2="94.0" y2="224.0" /><line x1="64.0" y1="224.0" x2="104.0" y2="224.0" /><line x1="104.0" y1="184.0" x2="104.0" y2="224.0" /><rect x="64.0" y="184.0" width="40" height="40" fill="none" /><text x="30" y="254" font-size="11" font-family="Inter,system-ui,Arial">L5 Byte</text></g><g><circle cx="204" cy="204" r="30" /><line x1="204.00" y1="178.00" x2="204.00" y2="174.00" /><line x1="207.39" y1="178.22" x2="207.92" y2="174.26" /><line x1="210.73" y1="178.89" x2="211.76" y2="175.02" /><line x1="213.95" y1="179.98" x2="215.48" y2="176.28" /><line x1="217.00" y1="181.48" x2="219.00" y2="178.02" /><line x1="219.83" y1="183.37" x2="222.26" y2="180.20" /><line x1="222.38" y1="185.62" x2="225.21" y2="182.79" /><line x1="224.63" y1="188.17" x2="227.80" y2="185.74" /><line x1="226.52" y1="191.00" x2="229.98" y2="189.00" /><line x1="228.02" y1="194.05" x2="231.72" y2="192.52" /><line x1="229.11" y1="197.27" x2="232.98" y2="196.24" /><line x1="229.78" y1="200.61" x2="233.74" y2="200.08" /><line x1="230.00" y1="204.00" x2="234.00" y2="204.00" /><line x1="229.78" y1="207.39" x2="233.74" y2="207.92" /><line x1="229.11" y1="210.73" x2="232.98" y2="211.76" /><line x1="228.02" y1="213.95" x2="231.72" y2="215.48" /><line x1="226.52" y1="217.00" x2="229.98" y2="219.00" /><line x1="224.63" y1="219.83" x2="227.80" y2="222.26" /><line x1="222.38" y1="222.38" x2="225.21" y2="225.21" /><line x1="219.83" y1="224.63" x2="222.26" y2="227.80" /><line x1="217.00" y1="226.52" x2="219.00" y2="229.98" /><line x1="213.95" y1="228.02" x2="215.48" y2="231.72" /><line x1="210.73" y1="229.11" x2="211.76" y2="232.98" /><line x1="207.39" y1="229.78" x2="207.92" y2="233.74" /><line x1="204.00" y1="230.00" x2="204.00" y2="234.00" /><line x1="200.61" y1="229.78" x2="200.08" y2="233.74" /><line x1="197.27" y1="229.11" x2="196.24" y2="232.98" /><line x1="194.05" y1="228.02" x2="192.52" y2="231.72" /><line x1="191.00" y1="226.52" x2="189.00" y2="229.98" /><line x1="188.17" y1="224.63" x2="185.74" y2="227.80" /><line x1="185.62" y1="222.38" x2="182.79" y2="225.21" /><line x1="183.37" y1="219.83" x2="180.20" y2="222.26" /><line x1="181.48" y1="217.00" x2="178.02" y2="219.00" /><line x1="179.98" y1="213.95" x2="176.28" y2="215.48" /><line x1="178.89" y1="210.73" x2="175.02" y2="211.76" /><line x1="178.22" y1="207.39" x2="174.26" y2="207.92" /><line x1="178.00" y1="204.00" x2="174.00" y2="204.00" /><line x1="178.22" y1="200.61" x2="174.26" y2="200.08" /><line x1="178.89" y1="197.27" x2="175.02" y2="196.24" /><line x1="179.98" y1="194.05" x2="176.28" y2="192.52" /><line x1="181.48" y1="191.00" x2="178.02" y2="189.00" /><line x1="183.37" y1="188.17" x2="180.20" y2="185.74" /><line x1="185.62" y1="185.62" x2="182.79" y2="182.79" /><line x1="188.17" y1="183.37" x2="185.74" y2="180.20" /><line x1="191.00" y1="181.48" x2="189.00" y2="178.02" /><line x1="194.05" y1="179.98" x2="192.52" y2="176.28" /><line x1="197.27" y1="178.89" x2="196.24" y2="175.02" /><line x1="200.61" y1="178.22" x2="200.08" y2="174.26" /><text x="150" y="254" font-size="11" font-family="Inter,system-ui,Arial">L6 Page(48)</text></g><g><circle cx="324" cy="204" r="32" /><circle cx="324" cy="204" r="22" stroke-dasharray="3 3" /><text x="270" y="254" font-size="11" font-family="Inter,system-ui,Arial">L7 Belt</text></g></svg>