<svg xmlns="http://www.w3.org/2000/svg" width="902" height="696" viewBox="0 0 902 696" fill="none" stroke="black" stroke-width="2" stroke-linecap="round" stroke-linejoin="round"><rect x="0" y="0" width="902" height="696" fill="white" stroke="none" /><g><rect x="36" y="36" width="46" height="26" fill="hsl(0,66%,52%)" stroke="black" stroke-width="0.75" rx="4" /><text x="59.0" y="76" font-family="monospace" font-size="11" text-anchor="middle">c00</text><text x="59.0" y="90" font-family="monospace" font-size="11" text-anchor="middle">0x00</text></g>
<g><rect x="106" y="36" width="46" height="26" fill="hsl(3,66%,52%)" stroke="black" stroke-width="0.75" rx="4" /><text x="129.0" y="76" font-family="monospace" font-size="11" text-anchor="middle">c01</text><text x="129.0" y="90" font-family="monospace" font-size="11" text-anchor="middle">0x02</text></g>
<g><rect x="176" y="36" width="46" height="26" fill="hsl(7,66%,52%)" stroke="black" stroke-width="0.75" rx="4" /><text x="199.0" y="76" font-family="monospace" font-size="11" text-anchor="middle">c02</text><text x="199.0" y="90" font-family="monospace" font-size="11" text-anchor="middle">0x04</text></g>
<g><rect x="246" y="36" width="46" height="26" fill="hsl(11,66%,52%)" stroke="black" stroke-width="0.75" rx="4" /><text x="269.0" y="76" font-family="monospace" font-size="11" text-anchor="middle">c03</text><text x="269.0" y="90" font-family="monospace" font-size="11" text-anchor="middle">0x06</text></g>
<g><rect x="316" y="36" width="46" height="26" fill="hsl(15,66%,52%)" stroke="black" stroke-width="0.75" rx="4" /><text x="339.0" y="76" font-family="monospace" font-size="11" text-anchor="middle">c04</text><text x="339.0" y="90" font-family="monospace" font-size="11" text-anchor="middle">0x08</text></g>
<g><rect x="386" y="36" width="46" height="26" fill="hsl(18,66%,52%)" stroke="black" stroke-width="0.75" rx="4" /><text x="409.0" y="76" font-family="monospace" font-size="11" text-anchor="middle">c05</text><text x="409.0" y="90" font-family="monospace" font-size="11" text-anchor="middle">0x0A</text></g>
<g><rect x="456" y="36" width="46" height="26" fill="hsl(22,66%,52%)" stroke="black" stroke-width="0.75" rx="4" /><text x="479.0" y="76" font-family="monospace" font-size="11" text-anchor="middle">c06</text><text x="479.0" y="90" font-family="monospace" font-size="11" text-anchor="middle">0x0C</text></g>
<g><rect x="526" y="36" width="46" height="26" fill="hsl(26,66%,52%)" stroke="black" stroke-width="0.75" rx="4" /><text x="549.0" y="76" font-family="monospace" font-size="11" text-anchor="middle">c07</text><text x="549.0" y="90" font-family="monospace" font-size="11" text-anchor="middle">0x0E</text></g>
<g><rect x="596" y="36" width="46" height="26" fill="hsl(30,66%,52%)" stroke="black" stroke-width="0.75" rx="4" /><text x="619.0" y="76" font-family="monospace" font-size="11" text-anchor="middle">c08</text><text x="619.0" y="90" font-family="monospace" font-size="11" text-anchor="middle">0x10</text></g>
<g><rect x="666" y="36" width="46" height="26" fill="hsl(33,66%,52%)" stroke="black" stroke-width="0.75" rx="4" /><text x="689.0" y="76" font-family="monospace" font-size="11" text-anchor="middle">c09</text><text x="689.0" y="90" font-family="monospace" font-size="11" text-anchor="middle">0x12</text></g>
<g><rect x="736" y="36" width="46" height="26" fill="hsl(37,66%,52%)" stroke="black" stroke-width="0.75" rx="4" /><text x="759.0" y="76" font-family="monospace" font-size="11" text-anchor="middle">c10</text><text x="759.0" y="90" font-family="monospace" font-size="11" text-anchor="middle">0x14</text></g>
<g><rect x="806" y="36" width="46" height="26" fill="hsl(41,66%,52%)" stroke="black" stroke-width="0.75" rx="4" /><text x="829.0" y="76" font-family="monospace" font-size="11" text-anchor="middle">c11</text><text x="829.0" y="90" font-family="monospace" font-size="11" text-anchor="middle">0x16</text></g>
<g><rect x="36" y="108" width="46" height="26" fill="hsl(45,66%,52%)" stroke="black" stroke-width="0.75" rx="4" /><text x="59.0" y="148" font-family="monospace" font-size="11" text-anchor="middle">c12</text><text x="59.0" y="162" font-family="monospace" font-size="11" text-anchor="middle">0x18</text></g>
<g><rect x="106" y="108" width="46" height="26" fill="hsl(48,66%,52%)" stroke="black" stroke-width="0.75" rx="4" /><text x="129.0" y="148" font-family="monospace" font-size="11" text-anchor="middle">c13</text><text x="129.0" y="162" font-family="monospace" font-size="11" text-anchor="middle">0x1A</text></g>
<g><rect x="176" y="108" width="46" height="26" fill="hsl(52,66%,52%)" stroke="black" stroke-width="0.75" rx="4" /><text x="199.0" y="148" font-family="monospace" font-size="11" text-anchor="middle">c14</text><text x="199.0" y="162" font-family="monospace" font-size="11" text-anchor="middle">0x1C</text></g>
<g><rect x="246" y="108" width="46" height="26" fill="hsl(56,66%,52%)" stroke="black" stroke-width="0.75" rx="4" /><text x="269.0" y="148" font-family="monospace" font-size="11" text-anchor="middle">c15</text><text x="269.0" y="162" font-family="monospace" font-size="11" text-anchor="middle">0x1E</text></g>
<g><rect x="316" y="108" width="46" height="26" fill="hsl(60,66%,52%)" stroke="black" stroke-width="0.75" rx="4" /><text x="339.0" y="148" font-family="monospace" font-size="11" text-anchor="middle">c16</text><text x="339.0" y="162" font-family="monospace" font-size="11" text-anchor="middle">0x20</text></g>
<g><rect x="386" y="108" width="46" height="26" fill="hsl(63,66%,52%)" stroke="black" stroke-width="0.75" rx="4" /><text x="409.0" y="148" font-family="monospace" font-size="11" text-anchor="middle">c17</text><text x="409.0" y="162" font-family="monospace" font-size="11" text-anchor="middle">0x22</text></g>
<g><rect x="456" y="108" width="46" height="26" fill="hsl(67,66%,52%)" stroke="black" stroke-width="0.75" rx="4" /><text x="479.0" y="148" font-family="monospace" font-size="11" text-anchor="middle">c18</text><text x="479.0" y="162" font-family="monospace" font-size="11" text-anchor="middle">0x24</text></g>
<g><rect x="526" y="108" width="46" height="26" fill="hsl(71,66%,52%)" stroke="black" stroke-width="0.75" rx="4" /><text x="549.0" y="148" font-family="monospace" font-size="11" text-anchor="middle">c19</text><text x="549.0" y="162" font-family="monospace" font-size="11" text-anchor="middle">0x26</text></g>
<g><rect x="596" y="108" width="46" height="26" fill="hsl(75,66%,52%)" stroke="black" stroke-width="0.75" rx="4" /><text x="619.0" y="148" font-family="monospace" font-size="11" text-anchor="middle">c20</text><text x="619.0" y="162" font-family="monospace" font-size="11" text-anchor="middle">0x28</text></g>
<g><rect x="666" y="108" width="46" height="26" fill="hsl(78,66%,52%)" stroke="black" stroke-width="0.75" rx="4" /><text x="689.0" y="148" font-family="monospace" font-size="11" text-anchor="middle">c21</text><text x="689.0" y="162" font-family="monospace" font-size="11" text-anchor="middle">0x2A</text></g>
<g><rect x="736" y="108" width="46" height="26" fill="hsl(82,66%,52%)" stroke="black" stroke-width="0.75" rx="4" /><text x="759.0" y="148" font-family="monospace" font-size="11" text-anchor="middle">c22</text><text x="759.0" y="162" font-family="monospace" font-size="11" text-anchor="middle">0x2C</text></g>
<g><rect x="806" y="108" width="46" height="26" fill="hsl(86,66%,52%)" stroke="black" stroke-width="0.75" rx="4" /><text x="829.0" y="148" font-family="monospace" font-size="11" text-anchor="middle">c23</text><text x="829.0" y="162" font-family="monospace" font-size="11" text-anchor="middle">0x2E</text></g>
<g><rect x="36" y="180" width="46" height="26" fill="hsl(90,66%,52%)" stroke="black" stroke-width="0.75" rx="4" /><text x="59.0" y="220" font-family="monospace" font-size="11" text-anchor="middle">c24</text><text x="59.0" y="234" font-family="monospace" font-size="11" text-anchor="middle">0x40</text></g>
<g><rect x="106" y="180" width="46" height="26" fill="hsl(93,66%,52%)" stroke="black" stroke-width="0.75" rx="4" /><text x="129.0" y="220" font-family="monospace" font-size="11" text-anchor="middle">c25</text><text x="129.0" y="234" font-family="monospace" font-size="11" text-anchor="middle">0x42</text></g>
<g><rect x="176" y="180" width="46" height="26" fill="hsl(97,66%,52%)" stroke="black" stroke-width="0.75" rx="4" /><text x="199.0" y="220" font-family="monospace" font-size="11" text-anchor="middle">c26</text><text x="199.0" y="234" font-family="monospace" font-size="11" text-anchor="middle">0x44</text></g>
<g><rect x="246" y="180" width="46" height="26" fill="hsl(101,66%,52%)" stroke="black" stroke-width="0.75" rx="4" /><text x="269.0" y="220" font-family="monospace" font-size="11" text-anchor="middle">c27</text><text x="269.0" y="234" font-family="monospace" font-size="11" text-anchor="middle">0x46</text></g>
<g><rect x="316" y="180" width="46" height="26" fill="hsl(105,66%,52%)" stroke="black" stroke-width="0.75" rx="4" /><text x="339.0" y="220" font-family="monospace" font-size="11" text-anchor="middle">c28</text><text x="339.0" y="234" font-family="monospace" font-size="11" text-anchor="middle">0x48</text></g>
<g><rect x="386" y="180" width="46" height="26" fill="hsl(108,66%,52%)" stroke="black" stroke-width="0.75" rx="4" /><text x="409.0" y="220" font-family="monospace" font-size="11" text-anchor="middle">c29</text><text x="409.0" y="234" font-family="monospace" font-size="11" text-anchor="middle">0x4A</text></g>
<g><rect x="456" y="180" width="46" height="26" fill="hsl(112,66%,52%)" stroke="black" stroke-width="0.75" rx="4" /><text x="479.0" y="220" font-family="monospace" font-size="11" text-anchor="middle">c30</text><text x="479.0" y="234" font-family="monospace" font-size="11" text-anchor="middle">0x4C</text></g>
<g><rect x="526" y="180" width="46" height="26" fill="hsl(116,66%,52%)" stroke="black" stroke-width="0.75" rx="4" /><text x="549.0" y="220" font-family="monospace" font-size="11" text-anchor="middle">c31</text><text x="549.0" y="234" font-family="monospace" font-size="11" text-anchor="middle">0x4E</text></g>
<g><rect x="596" y="180" width="46" height="26" fill="hsl(120,66%,52%)" stroke="black" stroke-width="0.75" rx="4" /><text x="619.0" y="220" font-family="monospace" font-size="11" text-anchor="middle">c32</text><text x="619.0" y="234" font-family="monospace" font-size="11" text-anchor="middle">0x50</text></g>
<g><rect x="666" y="180" width="46" height="26" fill="hsl(123,66%,52%)" stroke="black" stroke-width="0.75" rx="4" /><text x="689.0" y="220" font-family="monospace" font-size="11" text-anchor="middle">c33</text><text x="689.0" y="234" font-family="monospace" font-size="11" text-anchor="middle">0x52</text></g>
<g><rect x="736" y="180" width="46" height="26" fill="hsl(127,66%,52%)" stroke="black" stroke-width="0.75" rx="4" /><text x="759.0" y="220" font-family="monospace" font-size="11" text-anchor="middle">c34</text><text x="759.0" y="234" font-family="monospace" font-size="11" text-anchor="middle">0x54</text></g>
<g><rect x="806" y="180" width="46" height="26" fill="hsl(131,66%,52%)" stroke="black" stroke-width="0.75" rx="4" /><text x="829.0" y="220" font-family="monospace" font-size="11" text-anchor="middle">c35</text><text x="829.0" y="234" font-family="monospace" font-size="11" text-anchor="middle">0x56</text></g>
<g><rect x="36" y="252" width="46" height="26" fill="hsl(135,66%,52%)" stroke="black" stroke-width="0.75" rx="4" /><text x="59.0" y="292" font-family="monospace" font-size="11" text-anchor="middle">c36</text><text x="59.0" y="306" font-family="monospace" font-size="11" text-anchor="middle">0x58</text></g>
<g><rect x="106" y="252" width="46" height="26" fill="hsl(138,66%,52%)" stroke="black" stroke-width="0.75" rx="4" /><text x="129.0" y="292" font-family="monospace" font-size="11" text-anchor="middle">c37</text><text x="129.0" y="306" font-family="monospace" font-size="11" text-anchor="middle">0x5A</text></g>
<g><rect x="176" y="252" width="46" height="26" fill="hsl(142,66%,52%)" stroke="black" stroke-width="0.75" rx="4" /><text x="199.0" y="292" font-family="monospace" font-size="11" text-anchor="middle">c38</text><text x="199.0" y="306" font-family="monospace" font-size="11" text-anchor="middle">0x5C</text></g>
<g><rect x="246" y="252" width="46" height="26" fill="hsl(146,66%,52%)" stroke="black" stroke-width="0.75" rx="4" /><text x="269.0" y="292" font-family="monospace" font-size="11" text-anchor="middle">c39</text><text x="269.0" y="306" font-family="monospace" font-size="11" text-anchor="middle">0x5E</text></g>
<g><rect x="316" y="252" width="46" height="26" fill="hsl(150,66%,52%)" stroke="black" stroke-width="0.75" rx="4" /><text x="339.0" y="292" font-family="monospace" font-size="11" text-anchor="middle">c40</text><text x="339.0" y="306" font-family="monospace" font-size="11" text-anchor="middle">0x60</text></g>
<g><rect x="386" y="252" width="46" height="26" fill="hsl(153,66%,52%)" stroke="black" stroke-width="0.75" rx="4" /><text x="409.0" y="292" font-family="monospace" font-size="11" text-anchor="middle">c41</text><text x="409.0" y="306" font-family="monospace" font-size="11" text-anchor="middle">0x62</text></g>
<g><rect x="456" y="252" width="46" height="26" fill="hsl(157,66%,52%)" stroke="black" stroke-width="0.75" rx="4" /><text x="479.0" y="292" font-family="monospace" font-size="11" text-anchor="middle">c42</text><text x="479.0" y="306" font-family="monospace" font-size="11" text-anchor="middle">0x64</text></g>
<g><rect x="526" y="252" width="46" height="26" fill="hsl(161,66%,52%)" stroke="black" stroke-width="0.75" rx="4" /><text x="549.0" y="292" font-family="monospace" font-size="11" text-anchor="middle">c43</text><text x="549.0" y="306" font-family="monospace" font-size="11" text-anchor="middle">0x66</text></g>
<g><rect x="596" y="252" width="46" height="26" fill="hsl(165,66%,52%)" stroke="black" stroke-width="0.75" rx="4" /><text x="619.0" y="292" font-family="monospace" font-size="11" text-anchor="middle">c44</text><text x="619.0" y="306" font-family="monospace" font-size="11" text-anchor="middle">0x68</text></g>
<g><rect x="666" y="252" width="46" height="26" fill="hsl(168,66%,52%)" stroke="black" stroke-width="0.75" rx="4" /><text x="689.0" y="292" font-family="monospace" font-size="11" text-anchor="middle">c45</text><text x="689.0" y="306" font-family="monospace" font-size="11" text-anchor="middle">0x6A</text></g>
<g><rect x="736" y="252" width="46" height="26" fill="hsl(172,66%,52%)" stroke="black" stroke-width="0.75" rx="4" /><text x="759.0" y="292" font-family="monospace" font-size="11" text-anchor="middle">c46</text><text x="759.0" y="306" font-family="monospace" font-size="11" text-anchor="middle">0x6C</text></g>
<g><rect x="806" y="252" width="46" height="26" fill="hsl(176,66%,52%)" stroke="black" stroke-width="0.75" rx="4" /><text x="829.0" y="292" font-family="monospace" font-size="11" text-anchor="middle">c47</text><text x="829.0" y="306" font-family="monospace" font-size="11" text-anchor="middle">0x6E</text></g>
<g><rect x="36" y="324" width="46" height="26" fill="hsl(180,66%,52%)" stroke="black" stroke-width="0.75" rx="4" /><text x="59.0" y="364" font-family="monospace" font-size="11" text-anchor="middle">c48</text><text x="59.0" y="378" font-family="monospace" font-size="11" text-anchor="middle">0x80</text></g>
<g><rect x="106" y="324" width="46" height="26" fill="hsl(183,66%,52%)" stroke="black" stroke-width="0.75" rx="4" /><text x="129.0" y="364" font-family="monospace" font-size="11" text-anchor="middle">c49</text><text x="129.0" y="378" font-family="monospace" font-size="11" text-anchor="middle">0x82</text></g>
<g><rect x="176" y="324" width="46" height="26" fill="hsl(187,66%,52%)" stroke="black" stroke-width="0.75" rx="4" /><text x="199.0" y="364" font-family="monospace" font-size="11" text-anchor="middle">c50</text><text x="199.0" y="378" font-family="monospace" font-size="11" text-anchor="middle">0x84</text></g>
<g><rect x="246" y="324" width="46" height="26" fill="hsl(191,66%,52%)" stroke="black" stroke-width="0.75" rx="4" /><text x="269.0" y="364" font-family="monospace" font-size="11" text-anchor="middle">c51</text><text x="269.0" y="378" font-family="monospace" font-size="11" text-anchor="middle">0x86</text></g>
<g><rect x="316" y="324" width="46" height="26" fill="hsl(195,66%,52%)" stroke="black" stroke-width="0.75" rx="4" /><text x="339.0" y="364" font-family="monospace" font-size="11" text-anchor="middle">c52</text><text x="339.0" y="378" font-family="monospace" font-size="11" text-anchor="middle">0x88</text></g>
<g><rect x="386" y="324" width="46" height="26" fill="hsl(198,66%,52%)" stroke="black" stroke-width="0.75" rx="4" /><text x="409.0" y="364" font-family="monospace" font-size="11" text-anchor="middle">c53</text><text x="409.0" y="378" font-family="monospace" font-size="11" text-anchor="middle">0x8A</text></g>
<g><rect x="456" y="324" width="46" height="26" fill="hsl(202,66%,52%)" stroke="black" stroke-width="0.75" rx="4" /><text x="479.0" y="364" font-family="monospace" font-size="11" text-anchor="middle">c54</text><text x="479.0" y="378" font-family="monospace" font-size="11" text-anchor="middle">0x8C</text></g>
<g><rect x="526" y="324" width="46" height="26" fill="hsl(206,66%,52%)" stroke="black" stroke-width="0.75" rx="4" /><text x="549.0" y="364" font-family="monospace" font-size="11" text-anchor="middle">c55</text><text x="549.0" y="378" font-family="monospace" font-size="11" text-anchor="middle">0x8E</text></g>
<g><rect x="596" y="324" width="46" height="26" fill="hsl(210,66%,52%)" stroke="black" stroke-width="0.75" rx="4" /><text x="619.0" y="364" font-family="monospace" font-size="11" text-anchor="middle">c56</text><text x="619.0" y="378" font-family="monospace" font-size="11" text-anchor="middle">0x90</text></g>
<g><rect x="666" y="324" width="46" height="26" fill="hsl(213,66%,52%)" stroke="black" stroke-width="0.75" rx="4" /><text x="689.0" y="364" font-family="monospace" font-size="11" text-anchor="middle">c57</text><text x="689.0" y="378" font-family="monospace" font-size="11" text-anchor="middle">0x92</text></g>
<g><rect x="736" y="324" width="46" height="26" fill="hsl(217,66%,52%)" stroke="black" stroke-width="0.75" rx="4" /><text x="759.0" y="364" font-family="monospace" font-size="11" text-anchor="middle">c58</text><text x="759.0" y="378" font-family="monospace" font-size="11" text-anchor="middle">0x94</text></g>
<g><rect x="806" y="324" width="46" height="26" fill="hsl(221,66%,52%)" stroke="black" stroke-width="0.75" rx="4" /><text x="829.0" y="364" font-family="monospace" font-size="11" text-anchor="middle">c59</text><text x="829.0" y="378" font-family="monospace" font-size="11" text-anchor="middle">0x96</text></g>
<g><rect x="36" y="396" width="46" height="26" fill="hsl(225,66%,52%)" stroke="black" stroke-width="0.75" rx="4" /><text x="59.0" y="436" font-family="monospace" font-size="11" text-anchor="middle">c60</text><text x="59.0" y="450" font-family="monospace" font-size="11" text-anchor="middle">0x98</text></g>
<g><rect x="106" y="396" width="46" height="26" fill="hsl(228,66%,52%)" stroke="black" stroke-width="0.75" rx="4" /><text x="129.0" y="436" font-family="monospace" font-size="11" text-anchor="middle">c61</text><text x="129.0" y="450" font-family="monospace" font-size="11" text-anchor="middle">0x9A</text></g>
<g><rect x="176" y="396" width="46" height="26" fill="hsl(232,66%,52%)" stroke="black" stroke-width="0.75" rx="4" /><text x="199.0" y="436" font-family="monospace" font-size="11" text-anchor="middle">c62</text><text x="199.0" y="450" font-family="monospace" font-size="11" text-anchor="middle">0x9C</text></g>
<g><rect x="246" y="396" width="46" height="26" fill="hsl(236,66%,52%)" stroke="black" stroke-width="0.75" rx="4" /><text x="269.0" y="436" font-family="monospace" font-size="11" text-anchor="middle">c63</text><text x="269.0" y="450" font-family="monospace" font-size="11" text-anchor="middle">0x9E</text></g>
<g><rect x="316" y="396" width="46" height="26" fill="hsl(240,66%,52%)" stroke="black" stroke-width="0.75" rx="4" /><text x="339.0" y="436" font-family="monospace" font-size="11" text-anchor="middle">c64</text><text x="339.0" y="450" font-family="monospace" font-size="11" text-anchor="middle">0xA0</text></g>
<g><rect x="386" y="396" width="46" height="26" fill="hsl(243,66%,52%)" stroke="black" stroke-width="0.75" rx="4" /><text x="409.0" y="436" font-family="monospace" font-size="11" text-anchor="middle">c65</text><text x="409.0" y="450" font-family="monospace" font-size="11" text-anchor="middle">0xA2</text></g>
<g><rect x="456" y="396" width="46" height="26" fill="hsl(247,66%,52%)" stroke="black" stroke-width="0.75" rx="4" /><text x="479.0" y="436" font-family="monospace" font-size="11" text-anchor="middle">c66</text><text x="479.0" y="450" font-family="monospace" font-size="11" text-anchor="middle">0xA4</text></g>
<g><rect x="526" y="396" width="46" height="26" fill="hsl(251,66%,52%)" stroke="black" stroke-width="0.75" rx="4" /><text x="549.0" y="436" font-family="monospace" font-size="11" text-anchor="middle">c67</text><text x="549.0" y="450" font-family="monospace" font-size="11" text-anchor="middle">0xA6</text></g>
<g><rect x="596" y="396" width="46" height="26" fill="hsl(255,66%,52%)" stroke="black" stroke-width="0.75" rx="4" /><text x="619.0" y="436" font-family="monospace" font-size="11" text-anchor="middle">c68</text><text x="619.0" y="450" font-family="monospace" font-size="11" text-anchor="middle">0xA8</text></g>
<g><rect x="666" y="396" width="46" height="26" fill="hsl(258,66%,52%)" stroke="black" stroke-width="0.75" rx="4" /><text x="689.0" y="436" font-family="monospace" font-size="11" text-anchor="middle">c69</text><text x="689.0" y="450" font-family="monospace" font-size="11" text-anchor="middle">0xAA</text></g>
<g><rect x="736" y="396" width="46" height="26" fill="hsl(262,66%,52%)" stroke="black" stroke-width="0.75" rx="4" /><text x="759.0" y="436" font-family="monospace" font-size="11" text-anchor="middle">c70</text><text x="759.0" y="450" font-family="monospace" font-size="11" text-anchor="middle">0xAC</text></g>
<g><rect x="806" y="396" width="46" height="26" fill="hsl(266,66%,52%)" stroke="black" stroke-width="0.75" rx="4" /><text x="829.0" y="436" font-family="monospace" font-size="11" text-anchor="middle">c71</text><text x="829.0" y="450" font-family="monospace" font-size="11" text-anchor="middle">0xAE</text></g>
<g><rect x="36" y="468" width="46" height="26" fill="hsl(270,66%,52%)" stroke="black" stroke-width="0.75" rx="4" /><text x="59.0" y="508" font-family="monospace" font-size="11" text-anchor="middle">c72</text><text x="59.0" y="522" font-family="monospace" font-size="11" text-anchor="middle">0xC0</text></g>
<g><rect x="106" y="468" width="46" height="26" fill="hsl(273,66%,52%)" stroke="black" stroke-width="0.75" rx="4" /><text x="129.0" y="508" font-family="monospace" font-size="11" text-anchor="middle">c73</text><text x="129.0" y="522" font-family="monospace" font-size="11" text-anchor="middle">0xC2</text></g>
<g><rect x="176" y="468" width="46" height="26" fill="hsl(277,66%,52%)" stroke="black" stroke-width="0.75" rx="4" /><text x="199.0" y="508" font-family="monospace" font-size="11" text-anchor="middle">c74</text><text x="199.0" y="522" font-family="monospace" font-size="11" text-anchor="middle">0xC4</text></g>
<g><rect x="246" y="468" width="46" height="26" fill="hsl(281,66%,52%)" stroke="black" stroke-width="0.75" rx="4" /><text x="269.0" y="508" font-family="monospace" font-size="11" text-anchor="middle">c75</text><text x="269.0" y="522" font-family="monospace" font-size="11" text-anchor="middle">0xC6</text></g>
<g><rect x="316" y="468" width="46" height="26" fill="hsl(285,66%,52%)" stroke="black" stroke-width="0.75" rx="4" /><text x="339.0" y="508" font-family="monospace" font-size="11" text-anchor="middle">c76</text><text x="339.0" y="522" font-family="monospace" font-size="11" text-anchor="middle">0xC8</text></g>
<g><rect x="386" y="468" width="46" height="26" fill="hsl(288,66%,52%)" stroke="black" stroke-width="0.75" rx="4" /><text x="409.0" y="508" font-family="monospace" font-size="11" text-anchor="middle">c77</text><text x="409.0" y="522" font-family="monospace" font-size="11" text-anchor="middle">0xCA</text></g>
<g><rect x="456" y="468" width="46" height="26" fill="hsl(292,66%,52%)" stroke="black" stroke-width="0.75" rx="4" /><text x="479.0" y="508" font-family="monospace" font-size="11" text-anchor="middle">c78</text><text x="479.0" y="522" font-family="monospace" font-size="11" text-anchor="middle">0xCC</text></g>
<g><rect x="526" y="468" width="46" height="26" fill="hsl(296,66%,52%)" stroke="black" stroke-width="0.75" rx="4" /><text x="549.0" y="508" font-family="monospace" font-size="11" text-anchor="middle">c79</text><text x="549.0" y="522" font-family="monospace" font-size="11" text-anchor="middle">0xCE</text></g>
<g><rect x="596" y="468" width="46" height="26" fill="hsl(300,66%,52%)" stroke="black" stroke-width="0.75" rx="4" /><text x="619.0" y="508" font-family="monospace" font-size="11" text-anchor="middle">c80</text><text x="619.0" y="522" font-family="monospace" font-size="11" text-anchor="middle">0xD0</text></g>
<g><rect x="666" y="468" width="46" height="26" fill="hsl(303,66%,52%)" stroke="black" stroke-width="0.75" rx="4" /><text x="689.0" y="508" font-family="monospace" font-size="11" text-anchor="middle">c81</text><text x="689.0" y="522" font-family="monospace" font-size="11" text-anchor="middle">0xD2</text></g>
<g><rect x="736" y="468" width="46" height="26" fill="hsl(307,66%,52%)" stroke="black" stroke-width="0.75" rx="4" /><text x="759.0" y="508" font-family="monospace" font-size="11" text-anchor="middle">c82</text><text x="759.0" y="522" font-family="monospace" font-size="11" text-anchor="middle">0xD4</text></g>
<g><rect x="806" y="468" width="46" height="26" fill="hsl(311,66%,52%)" stroke="black" stroke-width="0.75" rx="4" /><text x="829.0" y="508" font-family="monospace" font-size="11" text-anchor="middle">c83</text><text x="829.0" y="522" font-family="monospace" font-size="11" text-anchor="middle">0xD6</text></g>
<g><rect x="36" y="540" width="46" height="26" fill="hsl(315,66%,52%)" stroke="black" stroke-width="0.75" rx="4" /><text x="59.0" y="580" font-family="monospace" font-size="11" text-anchor="middle">c84</text><text x="59.0" y="594" font-family="monospace" font-size="11" text-anchor="middle">0xD8</text></g>
<g><rect x="106" y="540" width="46" height="26" fill="hsl(318,66%,52%)" stroke="black" stroke-width="0.75" rx="4" /><text x="129.0" y="580" font-family="monospace" font-size="11" text-anchor="middle">c85</text><text x="129.0" y="594" font-family="monospace" font-size="11" text-anchor="middle">0xDA</text></g>
<g><rect x="176" y="540" width="46" height="26" fill="hsl(322,66%,52%)" stroke="black" stroke-width="0.75" rx="4" /><text x="199.0" y="580" font-family="monospace" font-size="11" text-anchor="middle">c86</text><text x="199.0" y="594" font-family="monospace" font-size="11" text-anchor="middle">0xDC</text></g>
<g><rect x="246" y="540" width="46" height="26" fill="hsl(326,66%,52%)" stroke="black" stroke-width="0.75" rx="4" /><text x="269.0" y="580" font-family="monospace" font-size="11" text-anchor="middle">c87</text><text x="269.0" y="594" font-family="monospace" font-size="11" text-anchor="middle">0xDE</text></g>
<g><rect x="316" y="540" width="46" height="26" fill="hsl(330,66%,52%)" stroke="black" stroke-width="0.75" rx="4" /><text x="339.0" y="580" font-family="monospace" font-size="11" text-anchor="middle">c88</text><text x="339.0" y="594" font-family="monospace" font-size="11" text-anchor="middle">0xE0</text></g>
<g><rect x="386" y="540" width="46" height="26" fill="hsl(333,66%,52%)" stroke="black" stroke-width="0.75" rx="4" /><text x="409.0" y="580" font-family="monospace" font-size="11" text-anchor="middle">c89</text><text x="409.0" y="594" font-family="monospace" font-size="11" text-anchor="middle">0xE2</text></g>
<g><rect x="456" y="540" width="46" height="26" fill="hsl(337,66%,52%)" stroke="black" stroke-width="0.75" rx="4" /><text x="479.0" y="580" font-family="monospace" font-size="11" text-anchor="middle">c90</text><text x="479.0" y="594" font-family="monospace" font-size="11" text-anchor="middle">0xE4</text></g>
<g><rect x="526" y="540" width="46" height="26" fill="hsl(341,66%,52%)" stroke="black" stroke-width="0.75" rx="4" /><text x="549.0" y="580" font-family="monospace" font-size="11" text-anchor="middle">c91</text><text x="549.0" y="594" font-family="monospace" font-size="11" text-anchor="middle">0xE6</text></g>
<g><rect x="596" y="540" width="46" height="26" fill="hsl(345,66%,52%)" stroke="black" stroke-width="0.75" rx="4" /><text x="619.0" y="580" font-family="monospace" font-size="11" text-anchor="middle">c92</text><text x="619.0" y="594" font-family="monospace" font-size="11" text-anchor="middle">0xE8</text></g>
<g><rect x="666" y="540" width="46" height="26" fill="hsl(348,66%,52%)" stroke="black" stroke-width="0.75" rx="4" /><text x="689.0" y="580" font-family="monospace" font-size="11" text-anchor="middle">c93</text><text x="689.0" y="594" font-family="monospace" font-size="11" text-anchor="middle">0xEA</text></g>
<g><rect x="736" y="540" width="46" height="26" fill="hsl(352,66%,52%)" stroke="black" stroke-width="0.75" rx="4" /><text x="759.0" y="580" font-family="monospace" font-size="11" text-anchor="middle">c94</text><text x="759.0" y="594" font-family="monospace" font-size="11" text-anchor="middle">0xEC</text></g>
<g><rect x="806" y="540" width="46" height="26" fill="hsl(356,66%,52%)" stroke="black" stroke-width="0.75" rx="4" /><text x="829.0" y="580" font-family="monospace" font-size="11" text-anchor="middle">c95</text><text x="829.0" y="594" font-family="monospace" font-size="11" text-anchor="middle">0xEE</text></g><text x="36" y="648" font-family="Inter,system-ui,Arial" font-size="20" font-weight="700">Atlas ≡₉₆ — Class Swatches with Canonical Representatives</text><text x="36" y="670" font-family="Inter,system-ui,Arial" font-size="12" fill="#333">Palette is index‑locked: hue(i) = 3.75° × i. Canonical rep sets b₀=0 and uses (b₄,b₅)∈{00,10,01} for di∈{0,1,2}.</text></svg>